# Tiled2Unity generated file. Do not modify by hand.
# Wavefront file for 'Home_mesh_0001.obj'

# Vertices (Count = 260)
v -1664 -1600 0
v -1696 -1600 0
v -1696 -1568 0
v -1664 -1568 0
v -1632 -1600 0
v -1664 -1600 0
v -1664 -1568 0
v -1632 -1568 0
v -1600 -1600 0
v -1632 -1600 0
v -1632 -1568 0
v -1600 -1568 0
v -1568 -1600 0
v -1600 -1600 0
v -1600 -1568 0
v -1568 -1568 0
v -1536 -1600 0
v -1568 -1600 0
v -1568 -1568 0
v -1536 -1568 0
v -1504 -1600 0
v -1536 -1600 0
v -1536 -1568 0
v -1504 -1568 0
v -1472 -1600 0
v -1504 -1600 0
v -1504 -1568 0
v -1472 -1568 0
v -1440 -1600 0
v -1472 -1600 0
v -1472 -1568 0
v -1440 -1568 0
v -1664 -1632 0
v -1696 -1632 0
v -1696 -1600 0
v -1664 -1600 0
v -1632 -1632 0
v -1664 -1632 0
v -1664 -1600 0
v -1632 -1600 0
v -1600 -1632 0
v -1632 -1632 0
v -1632 -1600 0
v -1600 -1600 0
v -1568 -1632 0
v -1600 -1632 0
v -1600 -1600 0
v -1568 -1600 0
v -1536 -1632 0
v -1568 -1632 0
v -1568 -1600 0
v -1536 -1600 0
v -1504 -1632 0
v -1536 -1632 0
v -1536 -1600 0
v -1504 -1600 0
v -1472 -1632 0
v -1504 -1632 0
v -1504 -1600 0
v -1472 -1600 0
v -1440 -1632 0
v -1472 -1632 0
v -1472 -1600 0
v -1440 -1600 0
v -1664 -1664 0
v -1696 -1664 0
v -1696 -1632 0
v -1664 -1632 0
v -1632 -1664 0
v -1664 -1664 0
v -1664 -1632 0
v -1632 -1632 0
v -1600 -1664 0
v -1632 -1664 0
v -1632 -1632 0
v -1600 -1632 0
v -1568 -1664 0
v -1600 -1664 0
v -1600 -1632 0
v -1568 -1632 0
v -1536 -1664 0
v -1568 -1664 0
v -1568 -1632 0
v -1536 -1632 0
v -1504 -1664 0
v -1536 -1664 0
v -1536 -1632 0
v -1504 -1632 0
v -1472 -1664 0
v -1504 -1664 0
v -1504 -1632 0
v -1472 -1632 0
v -1440 -1664 0
v -1472 -1664 0
v -1472 -1632 0
v -1440 -1632 0
v -1664 -1696 0
v -1696 -1696 0
v -1696 -1664 0
v -1664 -1664 0
v -1632 -1696 0
v -1664 -1696 0
v -1664 -1664 0
v -1632 -1664 0
v -1600 -1696 0
v -1632 -1696 0
v -1632 -1664 0
v -1600 -1664 0
v -1568 -1696 0
v -1600 -1696 0
v -1600 -1664 0
v -1568 -1664 0
v -1536 -1696 0
v -1568 -1696 0
v -1568 -1664 0
v -1536 -1664 0
v -1504 -1696 0
v -1536 -1696 0
v -1536 -1664 0
v -1504 -1664 0
v -1472 -1696 0
v -1504 -1696 0
v -1504 -1664 0
v -1472 -1664 0
v -1440 -1696 0
v -1472 -1696 0
v -1472 -1664 0
v -1440 -1664 0
v -1664 -1728 0
v -1696 -1728 0
v -1696 -1696 0
v -1664 -1696 0
v -1632 -1728 0
v -1664 -1728 0
v -1664 -1696 0
v -1632 -1696 0
v -1600 -1728 0
v -1632 -1728 0
v -1632 -1696 0
v -1600 -1696 0
v -1568 -1728 0
v -1600 -1728 0
v -1600 -1696 0
v -1568 -1696 0
v -1536 -1728 0
v -1568 -1728 0
v -1568 -1696 0
v -1536 -1696 0
v -1504 -1728 0
v -1536 -1728 0
v -1536 -1696 0
v -1504 -1696 0
v -1472 -1728 0
v -1504 -1728 0
v -1504 -1696 0
v -1472 -1696 0
v -1440 -1728 0
v -1472 -1728 0
v -1472 -1696 0
v -1440 -1696 0
v -1664 -1760 0
v -1696 -1760 0
v -1696 -1728 0
v -1664 -1728 0
v -1632 -1760 0
v -1664 -1760 0
v -1664 -1728 0
v -1632 -1728 0
v -1600 -1760 0
v -1632 -1760 0
v -1632 -1728 0
v -1600 -1728 0
v -1568 -1760 0
v -1600 -1760 0
v -1600 -1728 0
v -1568 -1728 0
v -1536 -1760 0
v -1568 -1760 0
v -1568 -1728 0
v -1536 -1728 0
v -1504 -1760 0
v -1536 -1760 0
v -1536 -1728 0
v -1504 -1728 0
v -1472 -1760 0
v -1504 -1760 0
v -1504 -1728 0
v -1472 -1728 0
v -1440 -1760 0
v -1472 -1760 0
v -1472 -1728 0
v -1440 -1728 0
v -1664 -1792 0
v -1696 -1792 0
v -1696 -1760 0
v -1664 -1760 0
v -1632 -1792 0
v -1664 -1792 0
v -1664 -1760 0
v -1632 -1760 0
v -1600 -1792 0
v -1632 -1792 0
v -1632 -1760 0
v -1600 -1760 0
v -1568 -1792 0
v -1600 -1792 0
v -1600 -1760 0
v -1568 -1760 0
v -1536 -1792 0
v -1568 -1792 0
v -1568 -1760 0
v -1536 -1760 0
v -1504 -1792 0
v -1536 -1792 0
v -1536 -1760 0
v -1504 -1760 0
v -1472 -1792 0
v -1504 -1792 0
v -1504 -1760 0
v -1472 -1760 0
v -1440 -1792 0
v -1472 -1792 0
v -1472 -1760 0
v -1440 -1760 0
v -1664 -1824 0
v -1696 -1824 0
v -1696 -1792 0
v -1664 -1792 0
v -1632 -1824 0
v -1664 -1824 0
v -1664 -1792 0
v -1632 -1792 0
v -1600 -1824 0
v -1632 -1824 0
v -1632 -1792 0
v -1600 -1792 0
v -1568 -1824 0
v -1600 -1824 0
v -1600 -1792 0
v -1568 -1792 0
v -1536 -1824 0
v -1568 -1824 0
v -1568 -1792 0
v -1536 -1792 0
v -1504 -1824 0
v -1536 -1824 0
v -1536 -1792 0
v -1504 -1792 0
v -1472 -1824 0
v -1504 -1824 0
v -1504 -1792 0
v -1472 -1792 0
v -1440 -1824 0
v -1472 -1824 0
v -1472 -1792 0
v -1440 -1792 0
v -1536 -1856 0
v -1568 -1856 0
v -1568 -1824 0
v -1536 -1824 0

# Texture cooridinates (Count = 26)
vt 0.03125 0.78125
vt 0.0625 0.78125
vt 0.0625 0.8125
vt 0.03125 0.8125
vt 0.15625 0.75
vt 0.1875 0.75
vt 0.1875 0.78125
vt 0.15625 0.78125
vt 0 0.78125
vt 0 0.8125
vt 0.21875 0.75
vt 0.25 0.75
vt 0.25 0.78125
vt 0.21875 0.78125
vt 0.125 0.84375
vt 0.15625 0.84375
vt 0.15625 0.875
vt 0.125 0.875
vt 0.125 0.8125
vt 0.15625 0.8125
vt 0.1875 0.8125
vt 0.1875 0.84375
vt 0.1875 0.875
vt 0.09375 0.84375
vt 0.09375 0.875
vt 0.09375 0.8125

# Normal
vn 0 0 -1

# Mesh description
g Home_mesh_0001

# Faces
f 1/1/1 2/2/1 3/3/1 4/4/1
f 5/5/1 6/6/1 7/7/1 8/8/1
f 9/5/1 10/6/1 11/7/1 12/8/1
f 13/5/1 14/6/1 15/7/1 16/8/1
f 17/5/1 18/6/1 19/7/1 20/8/1
f 21/5/1 22/6/1 23/7/1 24/8/1
f 25/5/1 26/6/1 27/7/1 28/8/1
f 29/9/1 30/1/1 31/4/1 32/10/1
f 33/11/1 34/12/1 35/13/1 36/14/1
f 37/15/1 38/16/1 39/17/1 40/18/1
f 41/15/1 42/16/1 43/17/1 44/18/1
f 45/15/1 46/16/1 47/17/1 48/18/1
f 49/15/1 50/16/1 51/17/1 52/18/1
f 53/15/1 54/16/1 55/17/1 56/18/1
f 57/15/1 58/16/1 59/17/1 60/18/1
f 61/11/1 62/12/1 63/13/1 64/14/1
f 65/11/1 66/12/1 67/13/1 68/14/1
f 69/19/1 70/20/1 71/16/1 72/15/1
f 73/19/1 74/20/1 75/16/1 76/15/1
f 77/19/1 78/20/1 79/16/1 80/15/1
f 81/19/1 82/20/1 83/16/1 84/15/1
f 85/19/1 86/20/1 87/16/1 88/15/1
f 89/19/1 90/20/1 91/16/1 92/15/1
f 93/11/1 94/12/1 95/13/1 96/14/1
f 97/11/1 98/12/1 99/13/1 100/14/1
f 101/8/1 102/7/1 103/21/1 104/20/1
f 105/8/1 106/7/1 107/21/1 108/20/1
f 109/8/1 110/7/1 111/21/1 112/20/1
f 113/8/1 114/7/1 115/21/1 116/20/1
f 117/8/1 118/7/1 119/21/1 120/20/1
f 121/8/1 122/7/1 123/21/1 124/20/1
f 125/11/1 126/12/1 127/13/1 128/14/1
f 129/11/1 130/12/1 131/13/1 132/14/1
f 133/8/1 134/7/1 135/21/1 136/20/1
f 137/8/1 138/7/1 139/21/1 140/20/1
f 141/8/1 142/7/1 143/21/1 144/20/1
f 145/8/1 146/7/1 147/21/1 148/20/1
f 149/8/1 150/7/1 151/21/1 152/20/1
f 153/8/1 154/7/1 155/21/1 156/20/1
f 157/11/1 158/12/1 159/13/1 160/14/1
f 161/11/1 162/12/1 163/13/1 164/14/1
f 165/8/1 166/7/1 167/21/1 168/20/1
f 169/8/1 170/7/1 171/21/1 172/20/1
f 173/8/1 174/7/1 175/21/1 176/20/1
f 177/8/1 178/7/1 179/21/1 180/20/1
f 181/8/1 182/7/1 183/21/1 184/20/1
f 185/8/1 186/7/1 187/21/1 188/20/1
f 189/11/1 190/12/1 191/13/1 192/14/1
f 193/16/1 194/22/1 195/23/1 196/17/1
f 197/8/1 198/7/1 199/21/1 200/20/1
f 201/8/1 202/7/1 203/21/1 204/20/1
f 205/8/1 206/7/1 207/21/1 208/20/1
f 209/8/1 210/7/1 211/21/1 212/20/1
f 213/8/1 214/7/1 215/21/1 216/20/1
f 217/8/1 218/7/1 219/21/1 220/20/1
f 221/24/1 222/15/1 223/18/1 224/25/1
f 225/20/1 226/21/1 227/22/1 228/16/1
f 229/8/1 230/7/1 231/21/1 232/20/1
f 233/8/1 234/7/1 235/21/1 236/20/1
f 237/8/1 238/7/1 239/21/1 240/20/1
f 241/8/1 242/7/1 243/21/1 244/20/1
f 245/8/1 246/7/1 247/21/1 248/20/1
f 249/8/1 250/7/1 251/21/1 252/20/1
f 253/26/1 254/19/1 255/15/1 256/24/1
f 257/8/1 258/7/1 259/21/1 260/20/1

