# Tiled2Unity generated file. Do not modify by hand.
# Wavefront file for 'PotionsShop_mesh_0004.obj'

# Vertices (Count = 64)
v -1280 -1472 0
v -1312 -1472 0
v -1312 -1440 0
v -1280 -1440 0
v -1120 -1472 0
v -1152 -1472 0
v -1152 -1440 0
v -1120 -1440 0
v -1376 -1504 0
v -1408 -1504 0
v -1408 -1472 0
v -1376 -1472 0
v -1344 -1504 0
v -1376 -1504 0
v -1376 -1472 0
v -1344 -1472 0
v -1312 -1504 0
v -1344 -1504 0
v -1344 -1472 0
v -1312 -1472 0
v -1280 -1504 0
v -1312 -1504 0
v -1312 -1472 0
v -1280 -1472 0
v -1120 -1504 0
v -1152 -1504 0
v -1152 -1472 0
v -1120 -1472 0
v -1088 -1504 0
v -1120 -1504 0
v -1120 -1472 0
v -1088 -1472 0
v -1056 -1504 0
v -1088 -1504 0
v -1088 -1472 0
v -1056 -1472 0
v -1024 -1504 0
v -1056 -1504 0
v -1056 -1472 0
v -1024 -1472 0
v -1280 -1568 0
v -1312 -1568 0
v -1312 -1536 0
v -1280 -1536 0
v -1248 -1568 0
v -1280 -1568 0
v -1280 -1536 0
v -1248 -1536 0
v -1216 -1568 0
v -1248 -1568 0
v -1248 -1536 0
v -1216 -1536 0
v -1184 -1568 0
v -1216 -1568 0
v -1216 -1536 0
v -1184 -1536 0
v -1152 -1568 0
v -1184 -1568 0
v -1184 -1536 0
v -1152 -1536 0
v -1120 -1568 0
v -1152 -1568 0
v -1152 -1536 0
v -1120 -1536 0

# Texture cooridinates (Count = 14)
vt 0.25 0.8125
vt 0.28125 0.8125
vt 0.28125 0.84375
vt 0.25 0.84375
vt 0.25 0.59375
vt 0.28125 0.59375
vt 0.28125 0.625
vt 0.25 0.625
vt 0.21875 0.59375
vt 0.21875 0.625
vt 0.21875 0.5625
vt 0.25 0.5625
vt 0.25 0.78125
vt 0.28125 0.78125

# Normal
vn 0 0 -1

# Mesh description
g PotionsShop_mesh_0004

# Faces
f 1/1/1 2/2/1 3/3/1 4/4/1
f 5/1/1 6/2/1 7/3/1 8/4/1
f 9/5/1 10/6/1 11/7/1 12/8/1
f 13/9/1 14/5/1 15/8/1 16/10/1
f 17/11/1 18/12/1 19/5/1 20/9/1
f 21/13/1 22/14/1 23/2/1 24/1/1
f 25/13/1 26/14/1 27/2/1 28/1/1
f 29/5/1 30/6/1 31/7/1 32/8/1
f 33/11/1 34/12/1 35/5/1 36/9/1
f 37/9/1 38/5/1 39/8/1 40/10/1
f 41/5/1 42/6/1 43/7/1 44/8/1
f 45/11/1 46/12/1 47/5/1 48/9/1
f 49/9/1 50/5/1 51/8/1 52/10/1
f 53/11/1 54/12/1 55/5/1 56/9/1
f 57/5/1 58/6/1 59/7/1 60/8/1
f 61/9/1 62/5/1 63/8/1 64/10/1

